<svg width="80" height="62" viewBox="0 0 80 62" fill="none" xmlns="http://www.w3.org/2000/svg">
<path d="M11.0487 10.9226L0 21.8763L5.25524 27.1632L10.5421 32.4501L11.6818 31.5636C12.3467 31.0571 12.9482 30.8038 13.1065 30.9621C13.2647 31.1204 14.4994 32.7983 15.829 34.7294C17.1903 36.6289 18.8049 38.75 19.4064 39.3832L20.5144 40.5545L19.1848 42.0425C17.7285 43.6887 17.5069 45.05 18.3934 46.6012C18.9632 47.5193 20.3562 48.5007 21.1793 48.5007C21.5592 48.5007 21.6858 48.8489 21.6858 49.957C21.6858 52.1097 23.2687 53.5343 25.4214 53.2811C25.6431 53.2494 25.8013 53.5977 25.8013 54.1042C25.8013 56.0987 27.5109 57.6816 29.632 57.6816C30.2968 57.6816 30.5501 57.8398 30.5501 58.2197C30.5501 59.2011 31.7847 60.8474 32.8928 61.3539C34.4757 62.1453 35.8686 61.7338 37.5148 60.0559C38.7812 58.7579 38.9395 58.6946 39.541 59.1378C39.8892 59.3911 40.9023 59.581 41.8203 59.581C43.8148 59.581 45.461 58.5996 45.8726 57.1434C46.1575 56.2253 46.2841 56.162 48.0253 56.0353C50.1148 55.877 51.1911 55.1172 51.761 53.3761C51.9826 52.7112 52.2675 52.3947 52.5524 52.4896C53.2806 52.7746 55.4017 52.0148 56.1615 51.2233C56.573 50.7801 56.9846 49.9886 57.1112 49.4188C57.2695 48.5957 57.5544 48.3108 58.5675 47.9625C61.9232 46.7912 62.778 43.2771 60.3403 40.4912L59.4222 39.4782L61.6383 35.9958C62.8413 34.0646 64.2026 32.1651 64.6142 31.6903C65.0257 31.247 65.374 30.8038 65.374 30.7089C65.374 30.6139 61.67 26.9415 57.1429 22.5411L48.9118 14.5632L47.7721 15.5763C46.8223 16.3677 46.4108 16.5577 45.6193 16.3994C43.15 15.9878 37.9581 15.8612 37.1033 16.1778C35.6787 16.7476 33.1777 15.8612 31.6264 14.2783L30.3918 12.9803L31.6581 11.904L32.9244 10.8276L27.5109 5.41405L22.0973 0.000513144L11.0487 10.9226ZM30.0752 16.2095C30.74 16.9059 31.943 17.6974 32.7028 18.014L34.0641 18.5205L30.2651 22.3511C28.1757 24.4722 26.3395 26.5617 26.1496 27.0365C25.928 27.5747 25.9596 28.2712 26.1812 29.0943C26.7511 31.2787 28.5873 32.6717 30.8983 32.6717C32.1963 32.6717 32.3862 32.5134 36.2802 28.6511L40.3324 24.6622L46.2208 30.329C49.4816 33.4315 53.7554 37.547 55.7499 39.4782C58.5991 42.2324 59.3589 43.1505 59.3589 43.8153C59.3589 44.9233 58.5991 45.6515 57.3961 45.6515C56.573 45.6515 55.8765 45.1133 53.1856 42.4857C51.4444 40.7445 49.7665 39.3199 49.5133 39.3199C48.9118 39.3199 48.2786 39.953 48.2786 40.5229C48.2786 40.7761 49.7665 42.5173 51.6027 44.3852C53.4389 46.2213 54.9268 47.9625 54.9268 48.2158C54.9268 49.1655 53.9771 50.0836 52.964 50.0836C52.1725 50.0836 51.4444 49.5138 48.7535 46.9178C46.949 45.1766 45.3977 43.752 45.2711 43.752C44.7012 43.752 43.8465 44.4801 43.8465 44.955C43.8465 45.2716 45.1444 46.7912 46.6957 48.3424C49.1967 50.8117 49.5449 51.3183 49.4816 52.1414C49.355 53.3444 48.2786 53.9459 46.949 53.5343C46.4108 53.4077 45.0811 52.3947 44.0048 51.3499C41.947 49.3871 41.3138 49.2288 40.649 50.4319C40.3957 50.9384 40.6173 51.3499 42.1053 52.9012C43.9731 54.864 44.2264 55.7188 43.2133 56.7318C42.0419 57.9032 40.6173 57.365 39.8575 55.4338C39.2877 54.0725 37.7681 52.6163 36.9133 52.6163C36.4385 52.6163 36.3752 52.3947 36.5018 50.9384C36.6601 48.9756 35.8686 47.7093 34.2857 47.2977C33.336 47.0444 33.2727 46.9811 33.2727 45.3666C33.241 43.9103 33.1144 43.5937 32.1963 42.7706C31.1199 41.7892 29.5053 41.5359 28.334 42.1691C27.7958 42.454 27.6375 42.359 27.2576 41.441C26.6245 39.9214 25.3265 39.0033 23.7752 39.0033C23.0154 39.0033 22.1923 38.75 21.8124 38.4334C21.4325 38.1485 19.6597 35.8375 17.8868 33.3365L14.626 28.8094L21.5592 21.8763C25.3581 18.0773 28.5556 14.9431 28.6506 14.9431C28.7455 14.9431 29.3787 15.513 30.0752 16.2095ZM11.9984 20.3567C13.8979 21.8763 12.0301 24.7571 9.81401 23.7441C8.3894 23.1109 8.35774 20.5783 9.75069 20.0084C10.7954 19.5969 11.0803 19.6285 11.9984 20.3567Z" fill="#441901"/>
<path d="M53.6288 5.0022L48.7535 9.87755L53.5022 14.6579C56.1298 17.2855 60.8785 21.9709 64.1393 25.0734L69.996 30.7402L74.998 25.9599L80 21.1795L77.0241 18.2036C75.4096 16.5574 70.5659 11.8087 66.292 7.66148L58.5358 0.095199L53.6288 5.0022Z" fill="#441901"/>
</svg>
